<svg fill="#455A64" xmlns="http://www.w3.org/2000/svg" viewBox="0 0 128 128" width="128" height="128"><path d="M105.4 22.4c-11-11-25.6-17-41.1-17.1-32 0-58.1 26.1-58.1 58.1 0 10.2 2.7 20.2 7.8 29.1l-8.2 30.1 30.8-8.1c8.5 4.6 18.1 7.1 27.8 7.1 32 0 58.1-26.1 58.1-58.1-.1-15.5-6.2-30.1-17.1-41.1zm-41.2 89.4c-8.7 0-17.2-2.3-24.6-6.7l-1.8-1-18.3 4.8 5-17.9-1.1-1.8C18.6 81.5 16 72.6 16 63.5c0-26.6 21.7-48.3 48.3-48.3 12.9 0 25 5 34.2 14.2 9.1 9.1 14.1 21.3 14.1 34.2 0 26.6-21.7 48.2-48.4 48.2zm26.6-36.2c-1.5-.7-8.6-4.2-9.9-4.7-1.3-.5-2.3-.7-3.3.7-1 1.5-3.8 4.7-4.6 5.7-.8 1-1.7 1.1-3.1.4-1.5-.7-6.1-2.3-11.7-7.2-4.3-3.9-7.2-8.6-8.1-10.1-.8-1.5-.1-2.2.6-3 .7-.7 1.5-1.7 2.2-2.5.7-.8 1-1.5 1.5-2.4.5-1 .2-1.8-.1-2.5-.4-.7-3.3-7.9-4.5-10.8-1.2-2.8-2.4-2.4-3.3-2.5-.8 0-1.8-.1-2.8-.1-1 0-2.5.4-3.9 1.8-1.3 1.5-5.1 5-5.1 12.1 0 7.2 5.2 14.1 5.9 15 .7 1 10.2 15.6 24.8 21.9 3.5 1.5 6.2 2.4 8.3 3.1 3.5 1.1 6.6.9 9.2.6 2.8-.4 8.6-3.5 9.8-6.9 1.2-3.4 1.2-6.3.8-6.9-.3-.6-1.3-.9-2.7-1.7z"/></svg>