<svg fill="#455A64" xmlns="http://www.w3.org/2000/svg" viewBox="0 0 128 128" width="128" height="128">
  <path d="M105.4,22.4c-11-11-25.6-17-41.1-17.1c-32,0-58.1,26.1-58.1,58.1c0,10.2,2.7,20.2,7.8,29.1
    l-8.2,30.1l30.8-8.1c8.5,4.6,18.1,7.1,27.8,7.1h0c0,0,0,0,0,0c32,0,58.1-26.1,58.1-58.1C122.4,48,116.3,33.4,105.4,22.4zM64.2,111.8L64.2,111.8c-8.7,0-17.2-2.3-24.6-6.7l-1.8-1l-18.3,4.8L24.5,91l-1.1-1.8c-4.8-7.7-7.4-16.6-7.4-25.7c0-26.6,21.7-48.3,48.3-48.3c12.9,0,25,5,34.2,14.2c9.1,9.1,14.1,21.3,14.1,34.2C112.6,90.2,90.9,111.8,64.2,111.8z M90.8,75.6c-1.5-0.7-8.6-4.2-9.9-4.7c-1.3-0.5-2.3-0.7-3.3,0.7c-1,1.5-3.8,4.7-4.6,5.7c-0.8,1-1.7,1.1-3.1,0.4c-1.5-0.7-6.1-2.3-11.7-7.2c-4.3-3.9-7.2-8.6-8.1-10.1c-0.8-1.5-0.1-2.2,0.6-3c0.7-0.7,1.5-1.7,2.2-2.5c0.7-0.8,1-1.5,1.5-2.4c0.5-1,0.2-1.8-0.1-2.5c-0.4-0.7-3.3-7.9-4.5-10.8c-1.2-2.8-2.4-2.4-3.3-2.5c-0.8,0-1.8-0.1-2.8-0.1c-1,0-2.5,0.4-3.9,1.8c-1.3,1.5-5.1,5-5.1,12.1c0,7.2,5.2,14.1,5.9,15c0.7,1,10.2,15.6,24.8,21.9c3.5,1.5,6.2,2.4,8.3,3.1c3.5,1.1,6.6,0.9,9.2,0.6c2.8-0.4,8.6-3.5,9.8-6.9c1.2-3.4,1.2-6.3,0.8-6.9C93.2,76.7,92.2,76.4,90.8,75.6z"/>
</svg>
